Coordinates
version=1
nRows=14
nColumns=63
inDegrees=yes

Units are S.I. units (second, meters, Newtons, ...)
If the header above contains a line with 'inDegrees', this indicates whether rotational values are in degrees (yes) or radians (no).

endheader
time	pelvis_tilt	pelvis_list	pelvis_rotation	pelvis_tx	pelvis_ty	pelvis_tz	hip_flexion_r	hip_adduction_r	hip_rotation_r	knee_angle_r	knee_angle_r_beta	ankle_angle_r	subtalar_angle_r	mtp_angle_r	hip_flexion_l	hip_adduction_l	hip_rotation_l	knee_angle_l	knee_angle_l_beta	ankle_angle_l	subtalar_angle_l	mtp_angle_l	L5_S1_Flex_Ext	L5_S1_Lat_Bending	L5_S1_axial_rotation	L4_L5_Flex_Ext	L4_L5_Lat_Bending	L4_L5_axial_rotation	L3_L4_Flex_Ext	L3_L4_Lat_Bending	L3_L4_axial_rotation	L2_L3_Flex_Ext	L2_L3_Lat_Bending	L2_L3_axial_rotation	L1_L2_Flex_Ext	L1_L2_Lat_Bending	L1_L2_axial_rotation	L1_T12_Flex_Ext	L1_T12_Lat_Bending	L1_T12_axial_rotation	Abs_r3	Abs_r2	Abs_r1	Abs_t1	Abs_t2	neck_flexion	neck_bending	neck_rotation	arm_flex_r	arm_add_r	arm_rot_r	elbow_flex_r	pro_sup_r	wrist_flex_r	wrist_dev_r	arm_flex_l	arm_add_l	arm_rot_l	elbow_flex_l	pro_sup_l	wrist_flex_l	wrist_dev_l
0.000000	-2.795935	-4.862707	75.676542	0.243987	0.770614	0.675417	-0.986805	-5.315388	3.430772	8.140898	0.142085	35.785659	16.399746	0.000000	0.079165	4.663987	-14.872374	10.011652	0.174736	39.340856	-3.488937	0.000000	0.009880	-0.721225	3.688423	0.018348	-0.959229	3.918949	0.016232	-1.753587	3.918949	0.011292	-1.753587	3.227370	0.009175	-1.470722	2.996844	0.005645	-1.117178	2.766317	0.070571	-8.158642	20.513902	0.000000	0.000000	26.042978	5.484594	-3.208824	11.139356	-1.981830	51.756493	43.654688	84.856862	11.862699	17.354512	18.749561	-8.688950	74.569603	48.658872	82.240377	18.019984	20.471292
0.016667	-2.363389	-4.924748	77.523427	0.241630	0.770673	0.675491	-1.311147	-4.796152	2.197355	7.920394	0.138237	35.620145	15.946554	0.000000	0.297503	4.168396	-13.426698	10.331759	0.180323	39.345752	-3.752067	0.000000	-0.015116	-0.671419	3.448024	-0.028071	-0.892988	3.663525	-0.024833	-1.632489	3.663525	-0.017276	-1.632489	3.017021	-0.014036	-1.369158	2.801519	-0.008637	-1.040029	2.586018	-0.107969	-7.595231	19.176874	0.000000	0.000000	25.849070	5.108092	-3.814355	10.663936	-2.356965	51.045872	44.141274	84.162237	10.903818	16.700163	19.572047	-8.321967	76.589454	48.398808	81.483186	16.966710	19.949031
0.033333	-1.989668	-4.973344	79.125671	0.239593	0.770738	0.675571	-1.587016	-4.341441	1.140751	7.742828	0.135138	35.498255	15.481721	0.000000	0.497959	3.741802	-12.159020	10.649652	0.185871	39.324231	-4.031986	0.000000	-0.033541	-0.629226	3.245977	-0.062289	-0.836871	3.448850	-0.055105	-1.529901	3.448850	-0.038334	-1.529901	2.840229	-0.031146	-1.283118	2.637356	-0.019165	-0.974671	2.434482	-0.239581	-7.117932	18.053148	0.000000	0.000000	25.596868	4.763017	-4.468717	10.271303	-2.684539	50.454212	44.540150	83.608020	10.160784	16.119815	20.226687	-8.023620	78.208392	48.210264	80.858508	15.985199	19.466336
0.050000	-1.670404	-5.009294	80.499741	0.237854	0.770809	0.675656	-1.818978	-3.946867	0.248252	7.602921	0.132696	35.415621	15.012174	0.000000	0.679901	3.378831	-11.060813	10.961927	0.191322	39.280515	-4.320215	0.000000	-0.046084	-0.593993	3.078777	-0.085583	-0.790011	3.271201	-0.075712	-1.444235	3.271201	-0.052670	-1.444235	2.693930	-0.042794	-1.211271	2.501507	-0.026333	-0.920095	2.309083	-0.329176	-6.719368	17.123237	0.000000	0.000000	25.293867	4.449667	-5.154541	9.953538	-2.966462	49.971051	44.858099	83.179167	9.608432	15.606684	20.726078	-7.789409	79.456173	48.086452	80.345806	15.077398	19.025043
0.066667	-1.401228	-5.033399	81.662098	0.236392	0.770884	0.675748	-2.011600	-3.608040	-0.492845	7.495397	0.130819	35.367876	14.544839	0.000000	0.842696	3.074108	-10.123551	11.265181	0.196615	39.218827	-4.608276	0.000000	-0.053433	-0.565068	2.942923	-0.099231	-0.751540	3.126855	-0.087786	-1.373905	3.126855	-0.061069	-1.373905	2.575057	-0.049618	-1.152286	2.391125	-0.030532	-0.875290	2.207192	-0.381670	-6.392158	16.367653	0.000000	0.000000	24.947564	4.168343	-5.854460	9.702724	-3.204645	49.585923	45.101903	82.860632	9.221593	15.153984	21.082820	-7.614835	80.362553	48.020586	79.924546	14.245252	18.626989
0.083333	-1.177771	-5.046457	82.629208	0.235184	0.770963	0.675845	-2.169448	-3.320568	-1.095245	7.414978	0.129416	35.350651	14.086640	0.000000	0.985712	2.822259	-9.338705	11.556010	0.201690	39.143386	-4.887690	0.000000	-0.056276	-0.541798	2.834908	-0.104511	-0.720591	3.012090	-0.092457	-1.317327	3.012090	-0.064318	-1.317327	2.480545	-0.052258	-1.104834	2.303363	-0.032156	-0.839245	2.126181	-0.401977	-6.128924	15.766909	0.000000	0.000000	24.565452	3.919342	-6.551107	9.510943	-3.400996	49.288364	45.278343	82.637367	8.975100	14.754929	21.309510	-7.495396	80.957288	48.005877	79.574194	13.490707	18.274012
0.100000	-0.995664	-5.049270	83.417535	0.234210	0.771043	0.675949	-2.297089	-3.080061	-1.571655	7.356388	0.128393	35.359578	13.644506	0.000000	1.108316	2.617908	-8.697749	11.831011	0.206490	39.058415	-5.149978	0.000000	-0.055301	-0.523531	2.751230	-0.102700	-0.696296	2.923182	-0.090854	-1.272913	2.923182	-0.063204	-1.272913	2.407327	-0.051353	-1.067584	2.235375	-0.031599	-0.810950	2.063423	-0.395011	-5.922287	15.301518	0.000000	0.000000	24.155029	3.702965	-7.227112	9.370276	-3.557426	49.067909	45.394203	82.494326	8.843788	14.402734	21.418747	-7.426594	81.270135	48.035538	79.274215	12.815710	17.967946
0.116667	-0.850539	-5.042636	84.043541	0.233446	0.771124	0.676060	-2.399090	-2.882130	-1.934778	7.314349	0.127659	35.390291	13.225361	0.000000	1.209875	2.455683	-8.192156	12.086779	0.210954	38.968135	-5.386664	0.000000	-0.051196	-0.509615	2.688385	-0.095076	-0.677788	2.856409	-0.084109	-1.239078	2.856409	-0.058512	-1.239078	2.352337	-0.047540	-1.039207	2.184313	-0.029253	-0.789394	2.016289	-0.365686	-5.764869	14.951992	0.000000	0.000000	23.723789	3.519510	-7.865108	9.272804	-3.675845	48.914095	45.456263	82.416464	8.802487	14.090614	21.423129	-7.403928	81.330848	48.102782	79.004073	12.222206	17.710629
0.133333	-0.738026	-5.027356	84.523692	0.232872	0.771205	0.676178	-2.480016	-2.722385	-2.197321	7.283585	0.127123	35.438419	12.836132	0.000000	1.289758	2.330207	-7.813398	12.319911	0.215023	38.876768	-5.589267	0.000000	-0.044648	-0.499398	2.642869	-0.082916	-0.664199	2.808048	-0.073352	-1.214236	2.808048	-0.051028	-1.214236	2.312510	-0.041460	-1.018372	2.147331	-0.025512	-0.773567	1.982152	-0.318917	-5.649290	14.698843	0.000000	0.000000	23.279228	3.369276	-8.447728	9.210610	-3.758161	48.816456	45.471306	82.388733	8.826033	13.811784	21.335254	-7.422897	81.169186	48.200821	78.743235	11.712142	17.503898
0.150000	-0.653758	-5.004229	84.874451	0.232465	0.771286	0.676303	-2.544435	-2.596434	-2.371987	7.258817	0.126690	35.499597	12.483745	0.000000	1.347332	2.236107	-7.552950	12.527004	0.218637	38.788534	-5.749309	0.000000	-0.036346	-0.492227	2.611177	-0.067499	-0.654662	2.774376	-0.059713	-1.196801	2.774376	-0.041540	-1.196801	2.284780	-0.033751	-1.003750	2.121582	-0.020768	-0.762460	1.958383	-0.259617	-5.568172	14.522585	0.000000	0.000000	22.828841	3.252563	-8.957604	9.175776	-3.806286	48.764529	45.446114	82.396087	8.889256	13.559459	21.167720	-7.479001	80.814903	48.322868	78.471165	11.287463	17.349589
0.166667	-0.593365	-4.974056	85.112282	0.232203	0.771363	0.676435	-2.596914	-2.499888	-2.471482	7.234770	0.126271	35.569455	12.175125	0.000000	1.381965	2.168007	-7.402283	12.704653	0.221738	38.707656	-5.858313	0.000000	-0.026978	-0.487450	2.589807	-0.050101	-0.648309	2.751670	-0.044322	-1.185187	2.751670	-0.030833	-1.185187	2.266081	-0.025052	-0.994009	2.104218	-0.015415	-0.755061	1.942355	-0.192702	-5.514135	14.403730	0.000000	0.000000	22.380124	3.169669	-9.377367	9.160383	-3.822129	48.747848	45.387470	82.423481	8.966991	13.326853	20.933127	-7.567742	80.297755	48.462136	78.167329	10.950116	17.249538
0.183333	-0.543682	-4.920608	85.263794	0.232074	0.771470	0.676639	-2.669949	-2.413999	-2.423210	7.164804	0.125049	35.640276	11.875688	0.000000	1.378901	2.093782	-7.495022	12.848934	0.224256	38.700412	-5.723907	0.000000	-0.022494	-0.483704	2.574702	-0.041774	-0.643326	2.735620	-0.036956	-1.176078	2.735620	-0.025709	-1.176078	2.252864	-0.020888	-0.986369	2.091945	-0.012853	-0.749257	1.931026	-0.160673	-5.471755	14.319718	0.000000	0.000000	21.953732	3.110661	-9.730349	9.159109	-3.819933	48.788537	45.300769	82.138236	8.927576	13.095564	20.743542	-7.680233	79.998297	48.573491	77.425269	10.533926	17.063867
0.200000	-0.508441	-4.871551	85.326891	0.232042	0.771545	0.676819	-2.729971	-2.353437	-2.391808	7.099038	0.123902	35.710418	11.698337	0.000000	1.354078	2.036151	-7.656394	12.950826	0.226035	38.706408	-5.529415	0.000000	-0.016126	-0.479574	2.554311	-0.029948	-0.637833	2.713956	-0.026494	-1.166036	2.713956	-0.018431	-1.166036	2.235022	-0.014975	-0.977947	2.075378	-0.009214	-0.742860	1.915733	-0.115187	-5.425037	14.206312	0.000000	0.000000	21.569760	3.148908	-9.786383	9.143720	-3.767674	48.821192	45.190415	81.995629	8.818291	12.852489	20.442081	-7.831833	79.365294	48.717202	76.646090	10.289486	17.090229
0.216667	-0.484834	-4.823040	85.343418	0.232058	0.771600	0.676978	-2.792412	-2.311269	-2.360040	7.020675	0.122534	35.770710	11.593313	0.000000	1.304941	1.997650	-7.820006	13.008201	0.227036	38.709286	-5.328609	0.000000	-0.009609	-0.475342	2.524760	-0.017845	-0.632206	2.682558	-0.015787	-1.155748	2.682558	-0.010982	-1.155748	2.209165	-0.008923	-0.969318	2.051368	-0.005491	-0.736306	1.893570	-0.068638	-5.377169	14.041960	0.000000	0.000000	21.232152	3.245456	-9.610289	9.105012	-3.669784	48.815609	45.056145	81.930809	8.636276	12.575438	20.066629	-8.007169	78.490002	48.860626	75.945738	10.268809	17.209551
